<svg width="42" height="50" fill="none" xmlns="http://www.w3.org/2000/svg"><path fill-rule="evenodd" clip-rule="evenodd" d="M37.667 0H4.333v4.167h33.334V0zm0 50v-4.167H4.333V50h33.334zM4.333 8.333h33.334a4.179 4.179 0 014.166 4.167v25a4.179 4.179 0 01-4.166 4.167H4.333A4.179 4.179 0 01.167 37.5v-25a4.179 4.179 0 014.166-4.167zM21 14.063a4.695 4.695 0 014.688 4.687A4.695 4.695 0 0121 23.438a4.695 4.695 0 01-4.688-4.688A4.695 4.695 0 0121 14.062zM10.583 32.291v3.125h20.834v-3.125c0-3.48-6.938-5.209-10.417-5.209-3.48 0-10.417 1.73-10.417 5.209z" fill="#000"/></svg>
